<?xml version="1.0" encoding="UTF-8"?>
<svg width="26px" height="26px" viewBox="0 0 26 26" version="1.1" xmlns="http://www.w3.org/2000/svg" xmlns:xlink="http://www.w3.org/1999/xlink">
    <title>我是申请执行人</title>
    <defs>
        <circle id="path-1" cx="12" cy="12" r="12"></circle>
        <polygon id="path-3" points="0.00304023093 0.00402805161 1.24540493 0.00402805161 1.24540493 4.512 0.00304023093 4.512"></polygon>
        <polygon id="path-5" points="0.007674 0.00402805161 1.151994 0.00402805161 1.151994 4.512 0.007674 4.512"></polygon>
    </defs>
    <g id="页面-1" stroke="none" stroke-width="1" fill="none" fill-rule="evenodd">
        <g id="首页-1" transform="translate(-1341.000000, -19.000000)">
            <g id="我是申请执行人" transform="translate(1342.000000, 20.000000)">
                <mask id="mask-2" fill="white">
                    <use xlink:href="#path-1"></use>
                </mask>
                <use id="蒙版" stroke="#FFFFFF" fill="#FFFFFF" xlink:href="#path-1"></use>
                <g id="扁平化人物" mask="url(#mask-2)">
                    <g transform="translate(3.264000, 4.032000)">
                        <g id="body" transform="translate(0.000000, 8.064000)">
                            <path d="M17.472,11.904 C17.472,11.904 16.8211184,8.3339009 16.5809907,6.59164159 C16.3408508,4.84934602 13.1082266,3.75334555 11.5342655,3.30060661 C9.719995,2.77876033 10.4897181,0.768 10.4897181,0.768 C10.127215,1.02468098 9.40623869,1.26471963 8.73596975,1.26471963 C8.065725,1.26471963 7.05197725,0.859623435 7.05197725,0.859623435 C7.05197725,0.859623435 7.84365341,2.72598108 5.93772244,3.30060661 C4.36809379,3.77384329 1.13114919,4.84934602 0.891009324,6.59165368 C0.650881555,8.33394925 0,11.904 0,11.904 L17.472,11.904 Z" id="Fill-1" fill="#FFEDCC"></path>
                            <path d="M7.11381759,1.06811916 C7.11381759,1.06811916 7.29137675,1.87527139 7.11381759,2.24241558 L7.89391555,2.82583989 C8.475252,3.26063811 9.29280385,3.10279093 9.68297242,2.48366849 C9.93449464,2.08456841 10.18512,1.59813689 10.3384872,1.06808248 C10.741236,-0.323509105 6.88483706,-0.388191349 7.11381759,1.06811916" id="Fill-25" fill="#FFD8B9"></path>
                            <g id="衣服" transform="translate(0.096000, 2.688000)">
                                <path d="M16.5868331,9.216 C16.9584678,9.216 17.3358148,8.88291567 17.27056,8.51972513 C17.0695962,7.40086163 16.6816991,5.10597092 16.5084224,3.85618016 C16.2690464,2.1298036 12.9505434,1.04383658 11.3815102,0.595237347 C10.4889233,0.34005312 9.58125634,3.37557062 8.66236976,3.365643 C7.71942735,3.35546389 6.76474656,0.306881207 5.80248952,0.595237347 C4.23777527,1.06413492 1.01096533,2.1298036 0.77157732,3.85618016 C0.598300599,5.10597092 0.210415536,7.40086163 0.00943963283,8.51972513 C-0.0558151041,8.88291567 0.225543922,9.216 0.597178637,9.216 L16.5868331,9.216 Z" id="Fill-3" fill="#152749"></path>
                                <g id="阴影" transform="translate(1.536000, 1.056000)">
                                    <g id="left" transform="translate(0.000000, 3.648000)">
                                        <mask id="mask-4" fill="white">
                                            <use xlink:href="#path-3"></use>
                                        </mask>
                                        <g id="Clip-8"></g>
                                        <polygon id="Fill-7" fill="#07163A" mask="url(#mask-4)" points="0.00304023093 4.51200121 0.00304023093 0.00402805161 1.24540493 4.51200121"></polygon>
                                    </g>
                                    <g id="right" transform="translate(13.152000, 3.648000)">
                                        <mask id="mask-6" fill="white">
                                            <use xlink:href="#path-5"></use>
                                        </mask>
                                        <g id="Clip-14"></g>
                                        <polygon id="Fill-13" fill="#07163A" mask="url(#mask-6)" points="1.151994 4.51200121 1.151994 0.00402805161 0.007674 4.51200121"></polygon>
                                    </g>
                                    <polygon id="Fill-9" fill="#07163A" points="3.38105804 0 3.168 4.20147578 5.72415384 8.16 6.24 8.16"></polygon>
                                    <polygon id="Fill-15" fill="#07163A" points="11.0189798 0 11.232 4.20147578 8.67589343 8.16 8.16 8.16"></polygon>
                                </g>
                                <g id="领子" transform="translate(4.608000, 0.000000)">
                                    <polygon id="Fill-5" fill="#E4E8F0" points="3.01864632 9.216 0.864 0.58984695 1.87548722 0 4.224 3.49404454"></polygon>
                                    <polygon id="Fill-11" fill="#E4E8F0" points="5.04533626 9.216 7.2 0.58984695 6.18851526 0 3.84 3.49404454"></polygon>
                                    <g id="领带" transform="translate(2.976000, 2.304000)">
                                        <path d="M0.192,6.912 L0.768582906,0.315598112 C0.87879304,-0.105199371 1.47528386,-0.105199371 1.58551808,0.315598112 L2.112,6.912 L0.192,6.912 Z" id="Fill-17" fill="#373EB2"></path>
                                        <path d="M0.869753431,2.18709761 L0.116902221,1.43424535 C-0.0389674071,1.2783755 -0.0389674071,1.02567292 0.116902221,0.869751421 L0.869753431,0.11691207 C1.02562306,-0.0389706899 1.27832529,-0.0389706899 1.43424657,0.11691207 L2.18709778,0.869751421 C2.34296741,1.02563418 2.34296741,1.27832385 2.18709778,1.43424535 L1.43424657,2.18709761 C1.27832529,2.34296746 1.02562306,2.34296746 0.869753431,2.18709761" id="Fill-19" fill="#4A52E2"></path>
                                    </g>
                                    <path d="M0.928708026,0.475906323 L1.872,0 L1.872,0 L4.128,2.30419889 L3.23106377,3.18469816 C2.83694493,3.57159451 2.20380702,3.56573952 1.81691068,3.17162068 C1.7483119,3.10174131 1.69034899,3.02216505 1.64487776,2.9354397 L0.711102201,1.15448896 C0.582873603,0.909923963 0.677182888,0.607715043 0.921747885,0.479486444 C0.924058556,0.478274929 0.926378674,0.477081519 0.928708026,0.475906323 Z" id="Fill-21" fill="#FFFFFF"></path>
                                    <path d="M4.43961761,0.368099115 L5.16132535,0 L5.16132535,0 L7.32132535,2.30419889 L6.53189098,3.07916635 C6.13777214,3.46606269 5.50463423,3.46020771 5.11773788,3.06608887 C5.02565788,2.97228993 4.95297313,2.8612581 4.90384106,2.73934417 L4.20303839,1.00040636 C4.10622373,0.760175169 4.20888953,0.485779438 4.43961761,0.368099115 Z" id="Fill-21" fill="#FFFFFF" transform="translate(5.676663, 2.064000) scale(-1, 1) translate(-5.676663, -2.064000) "></path>
                                    <path d="M0.23613076,0.807968161 L0.00195069466,3.04672497 C-0.0220363292,3.27624034 0.178677178,3.46773738 0.412268605,3.43813954 L0.67665319,3.40464978 C0.829858654,3.38523822 0.912623697,3.57506557 0.792369732,3.67004532 L0.365300148,4.00742942 C0.228981254,4.11511798 0.189849048,4.30244682 0.27201319,4.45394354 L2.83324115,9.216 L3.744,9.216 L1.36421989,0.288 L0.23613076,0.807968161 Z" id="Fill-21" fill="#536985"></path>
                                    <path d="M7.8278625,0.807968161 L8.06204212,3.04672497 C8.08607815,3.27624034 7.88531597,3.46773738 7.65172499,3.43813954 L7.38734092,3.40464978 C7.23417254,3.38523822 7.15137086,3.57506557 7.2716246,3.67004532 L7.69869336,4.00742942 C7.83501199,4.11511798 7.87414412,4.30244682 7.79198014,4.45394354 L5.2307571,9.216 L4.32,9.216 L6.69976327,0.288 L7.8278625,0.807968161 Z" id="Fill-23" fill="#536985"></path>
                                </g>
                            </g>
                        </g>
                        <g id="head" transform="translate(4.704000, 0.000000)">
                            <path d="M7.392,3.96187917 C7.392,5.83186477 6.92478079,9.696 3.984,9.696 C1.04321921,9.696 0.576,5.83181622 0.576,3.96187917 C0.576,2.09189356 2.10183246,0.576 3.984,0.576 C5.86616754,0.576 7.392,2.09189356 7.392,3.96187917" id="Fill-27" fill="#FFEDCC"></path>
                            <path d="M1.10227683,7.2 C1.10227683,7.2 4.25136624,6.21779803 4.91670627,4.27171911 C4.91670627,4.27171911 5.91581963,5.82558626 7.26973008,6.18120901 C7.26973008,6.18120901 7.90393458,3.15507662 6.28356561,2.32562798 C4.66319663,1.49616713 -0.598561964,2.08387434 1.10227683,7.2" id="Fill-15" fill="#FFD8B9"></path>
                            <path d="M4.77648692,3.14626579 C4.77648692,3.14626579 4.60012441,4.96591469 0.468154082,6.432 C-1.0940836,3.22771096 1.4265201,-1.68320375 5.4624987,0.574140643 C5.4624987,0.574140643 8.56589975,0.710489011 7.5839751,5.64703003 C7.58392663,5.64699388 6.08315468,4.93249326 4.77648692,3.14626579" id="Fill-17" fill="#341B10"></path>
                        </g>
                    </g>
                </g>
            </g>
        </g>
    </g>
</svg>