<?xml version="1.0" encoding="UTF-8"?>
<svg width="14px" height="14px" viewBox="0 0 14 14" version="1.1" xmlns="http://www.w3.org/2000/svg" xmlns:xlink="http://www.w3.org/1999/xlink">
    <title>债务人管理 2</title>
    <g id="页面-1" stroke="none" stroke-width="1" fill="none" fill-rule="evenodd">
        <g id="首页-1备份-2" transform="translate(-24.000000, -325.000000)">
            <g id="导航" transform="translate(0.000000, 64.000000)">
                <g id="编组-3" transform="translate(0.000000, 248.000000)">
                    <g id="债务人管理" transform="translate(24.000000, 13.000000)">
                        <rect id="Rectangle-7" x="0" y="0" width="14" height="14"></rect>
                        <path d="M8.37806199,1.78746421 C10.0225387,1.78746421 11.3556505,3.12057598 11.3556505,4.7650527 L11.3556505,5.76269791 C11.3556505,6.71678911 10.9030469,7.5939286 10.1584757,8.1496213 L10.1584757,8.50597128 C11.63542,8.74987812 12.7401696,9.32913403 13.4539671,10.2516722 C13.6458752,10.4997029 13.75,10.8044322 13.75,11.1180367 L13.75,11.3771461 C13.75,11.908631 13.3191464,12.3394846 12.7876614,12.3394846 L3.96846321,12.3394846 C3.43697835,12.3394846 3.00612474,11.908631 3.00612474,11.377146 L3.00612474,11.1180353 C3.00612474,10.80443 3.11025011,10.4997003 3.30215933,10.2516699 C4.01595575,9.32913337 5.12070471,8.74987795 6.59764826,8.50597126 L6.59764826,8.1496213 C5.85307704,7.5939286 5.4004735,6.71678911 5.4004735,5.76269791 L5.4004735,4.7650527 C5.4004735,3.12057598 6.73358528,1.78746421 8.37806199,1.78746421 Z M8.37806199,2.55488388 C7.15741945,2.55488388 6.16789317,3.54441016 6.16789317,4.7650527 L6.16789317,5.76269791 C6.16789317,6.52573515 6.5572168,7.22165262 7.18825029,7.62565715 C7.29842189,7.69619195 7.36506793,7.81799525 7.36506793,7.94881169 L7.36506793,8.83780745 C7.36506793,9.03107898 7.22132147,9.19418463 7.0295824,9.21847483 C5.57121464,9.40322606 4.53881077,9.90744259 3.9091117,10.7212886 C3.82122804,10.8348727 3.7735444,10.9744218 3.7735444,11.1180355 L3.7735444,11.3771462 C3.7735444,11.4847968 3.86081253,11.572065 3.96846321,11.572065 L12.7876614,11.572065 C12.8953122,11.572065 12.9825803,11.4847968 12.9825803,11.3771461 L12.9825803,11.1180367 C12.9825803,10.9744232 12.9348968,10.8348737 12.8470139,10.7212898 C12.2173145,9.90744312 11.1849101,9.40322619 9.72654157,9.21847485 C9.5348025,9.19418465 9.39105604,9.031079 9.39105604,8.83780747 L9.39105604,7.94881169 C9.39105604,7.81799525 9.45770209,7.69619195 9.56787369,7.62565715 C10.1989072,7.22165262 10.5882308,6.52573515 10.5882308,5.76269791 L10.5882308,4.7650527 C10.5882308,3.54441016 9.59870452,2.55488388 8.37806199,2.55488388 Z M5.62193725,1 C6.14649636,1 6.63937416,1.13564381 7.06740844,1.37376922 L6.31415285,1.87798624 C6.09640993,1.80623956 5.86370703,1.76741967 5.62193725,1.76741967 C4.40129472,1.76741967 3.41176843,2.75694595 3.41176843,3.97758849 L3.41176843,4.9752337 C3.41176843,5.73827094 3.80109206,6.43418841 4.43212555,6.83819293 C4.54229715,6.90872774 4.60894319,7.03053104 4.60894319,7.16134748 L4.60894319,8.05034324 C4.60894319,8.24361477 4.46519674,8.40672042 4.27345766,8.43101061 C2.8150899,8.61576185 1.78268603,9.11997838 1.15298696,9.9338244 C1.0651033,10.0474084 1.01741967,10.1869576 1.01741967,10.3305713 L1.01741967,10.589682 C1.01741967,10.6973326 1.10468779,10.7846008 1.21233847,10.7846008 L2.246,10.784 L2.246,11.552 L1.21233847,11.5520204 C0.68085361,11.5520204 0.25,11.1211668 0.25,10.5896818 L0.25,10.3305711 C0.25,10.0169658 0.354125371,9.71223612 0.546034592,9.46420565 C1.25983101,8.54166916 2.36457997,7.96241374 3.84152353,7.71850705 L3.84152353,7.36215709 C3.0969523,6.80646439 2.64434876,5.9293249 2.64434876,4.9752337 L2.64434876,3.97758849 C2.64434876,2.33311177 3.97746054,1 5.62193725,1 Z" id="形状结合" stroke="#0A6FEB" stroke-width="0.2" fill="#0A6FEB" fill-rule="nonzero"></path>
                    </g>
                </g>
            </g>
        </g>
    </g>
</svg>