<?xml version="1.0" encoding="UTF-8"?>
<svg width="14px" height="14px" viewBox="0 0 14 14" version="1.1" xmlns="http://www.w3.org/2000/svg" xmlns:xlink="http://www.w3.org/1999/xlink">
    <title>编组 6</title>
    <g id="页面-1" stroke="none" stroke-width="1" fill="none" fill-rule="evenodd">
        <g id="首页-1备份-2" transform="translate(-24.000000, -373.000000)">
            <g id="导航" transform="translate(0.000000, 64.000000)">
                <g id="编组-4" transform="translate(0.000000, 296.000000)">
                    <g id="编组-3" transform="translate(24.000000, 13.000000)">
                        <rect id="矩形" stroke-opacity="0" stroke="#979797" x="0.5" y="0.5" width="13" height="13"></rect>
                        <path d="M7.69665094,0.735155994 L10.64,3.179 L12.7311321,3.17948382 C13.2938373,3.17948382 13.75,3.63564653 13.75,4.19835175 L13.75,12.4766536 C13.75,13.0393588 13.2938373,13.4955216 12.7311321,13.4955216 L1.26886793,13.4955216 C0.70616271,13.4955216 0.25,13.0393588 0.25,12.4766536 L0.25,4.19835175 C0.25,3.63564653 0.70616271,3.17948382 1.26886793,3.17948382 L3.362,3.179 L6.40619103,0.725604107 C6.78379277,0.421246206 7.323596,0.425241788 7.69665094,0.735155994 Z M12.7311321,3.94363477 L1.26886793,3.94363477 C1.12819162,3.94363477 1.01415094,4.05767544 1.01415094,4.19835175 L1.01415094,12.4766536 C1.01415094,12.5442088 1.04098712,12.608997 1.08875582,12.6567657 C1.13652452,12.7045344 1.20131278,12.7313706 1.26886793,12.7313706 L12.7311321,12.7313706 C12.8718084,12.7313706 12.9858491,12.6173299 12.9858491,12.4766536 L12.9858491,4.19835175 C12.9858491,4.05767544 12.8718084,3.94363477 12.7311321,3.94363477 Z M4.45283019,10.8209933 C4.66384464,10.8209933 4.83490566,10.9920543 4.83490566,11.2030687 C4.83490566,11.4140832 4.66384464,11.5851442 4.45283019,11.5851442 L3.17924529,11.5851442 C3.07791257,11.5851442 2.98073018,11.5448899 2.90907713,11.4732369 C2.83742408,11.4015838 2.79716981,11.3044014 2.79716981,11.2030687 C2.79716981,10.9920543 2.96823083,10.8209933 3.17924529,10.8209933 L4.45283019,10.8209933 Z M5.08962264,8.27382344 C5.3006371,8.27382344 5.47169811,8.44488445 5.47169811,8.65589891 C5.47169811,8.86691336 5.3006371,9.03797438 5.08962264,9.03797438 L3.17924529,9.03797438 C2.96823083,9.03797438 2.79716981,8.86691336 2.79716981,8.65589891 C2.79716981,8.44488445 2.96823083,8.27382344 3.17924529,8.27382344 L5.08962264,8.27382344 Z M10.8207547,5.72665364 C11.0317692,5.72665364 11.2028302,5.89771465 11.2028302,6.10872911 C11.2028302,6.31974356 11.0317692,6.49080458 10.8207547,6.49080458 L3.17924529,6.49080458 C2.96823083,6.49080458 2.79716981,6.31974356 2.79716981,6.10872911 C2.79716981,5.89771465 2.96823083,5.72665364 3.17924529,5.72665364 L10.8207547,5.72665364 Z M6.88601416,1.32036826 L4.579,3.179 L9.444,3.179 L7.20854952,1.32291542 C7.11533804,1.24543355 6.98043774,1.2443682 6.88601416,1.32036826 Z" id="形状结合" stroke="#0A6FEB" stroke-width="0.25" fill="#0A6FEB" fill-rule="nonzero"></path>
                    </g>
                </g>
            </g>
        </g>
    </g>
</svg>