<?xml version="1.0" encoding="UTF-8"?>
<svg width="14px" height="14px" viewBox="0 0 14 14" version="1.1" xmlns="http://www.w3.org/2000/svg" xmlns:xlink="http://www.w3.org/1999/xlink">
    <title>首页 2</title>
    <g id="页面-1" stroke="none" stroke-width="1" fill="none" fill-rule="evenodd">
        <g id="首页-1" transform="translate(-24.000000, -85.000000)">
            <g id="导航" transform="translate(0.000000, 64.000000)">
                <g id="编组-1" transform="translate(0.000000, 8.000000)">
                    <g id="首页" transform="translate(24.000000, 13.000000)">
                        <path d="M13.8354568,7.35522742 C13.6117557,7.58108119 13.2449937,7.58562309 13.0157201,7.36542554 L7.01891078,1.5991158 L0.976047411,7.520767 C0.748528358,7.74344709 0.384882476,7.73887698 0.163286864,7.5106112 C-0.0583227857,7.28228901 -0.0537889678,6.91652494 0.173407243,6.69384486 L6.18800093,0.800263164 C6.18800093,0.800263164 6.36876411,0.557243264 6.92433225,0.0785523145 L6.92466913,0.0785523145 C6.92502005,0.0785523145 6.89397111,0.104506033 7.01576659,0 L13.8249715,6.54726277 C14.0542732,6.76748853 14.058793,7.12940186 13.8354568,7.35522742 Z M11.5258635,14 L2.47413646,14 C2.07423087,14 1.75,13.6784137 1.75,13.2818014 L1.75,8.97258135 L2.83619758,8.97258135 L2.83619758,12.9226809 L11.1637882,12.9226809 L11.1637882,8.97258135 L12.25,8.97258135 L12.25,13.2818014 C12.25,13.6784137 11.9257691,14 11.5258635,14 Z" id="形状" fill="#606266" fill-rule="nonzero"></path>
                        <rect id="矩形" fill="#595959" x="8.3125" y="7.875" width="1.05" height="3.5" rx="0.525"></rect>
                    </g>
                </g>
            </g>
        </g>
    </g>
</svg>