<?xml version="1.0" encoding="UTF-8"?>
<svg width="14px" height="14px" viewBox="0 0 14 14" version="1.1" xmlns="http://www.w3.org/2000/svg" xmlns:xlink="http://www.w3.org/1999/xlink">
    <title>工作日志</title>
    <defs>
        <rect id="path-1" x="0" y="0" width="14" height="14"></rect>
    </defs>
    <g id="页面-1" stroke="none" stroke-width="1" fill="none" fill-rule="evenodd">
        <g id="首页-1备份-2" transform="translate(-24.000000, -181.000000)">
            <g id="导航" transform="translate(0.000000, 64.000000)">
                <g id="编组-3" transform="translate(0.000000, 104.000000)">
                    <g id="工作日志" transform="translate(24.000000, 13.000000)">
                        <mask id="mask-2" fill="white">
                            <use xlink:href="#path-1"></use>
                        </mask>
                        <use id="Rectangle-4" fill-opacity="0.65" fill="#FFFFFF" xlink:href="#path-1"></use>
                        <path d="M12.4553571,0.5 C13.0328125,0.5 13.5,0.9671875 13.5,1.54464286 L13.5,1.54464286 L13.5,12.4553571 C13.5,13.0328125 13.0328125,13.5 12.4553571,13.5 L12.4553571,13.5 L1.54464286,13.5 C0.9671875,13.5 0.5,13.0328125 0.5,12.4553571 L0.5,12.4553571 L0.5,1.54464286 C0.5,0.9671875 0.9671875,0.5 1.54464286,0.5 L1.54464286,0.5 Z M12.4553571,1.54464286 L1.54464286,1.54464286 L1.54464286,12.4553571 L12.4553571,12.4553571 L12.4553571,1.54464286 Z M10.1919643,9.26339286 C10.480692,9.26339286 10.7142857,9.49698661 10.7142857,9.78571429 C10.7142857,10.074442 10.480692,10.3080357 10.1919643,10.3080357 L10.1919643,10.3080357 L5.66517857,10.3080357 C5.37645089,10.3080357 5.14285714,10.074442 5.14285714,9.78571429 C5.14285714,9.49698661 5.37645089,9.26339286 5.66517857,9.26339286 L5.66517857,9.26339286 Z M3.80803571,9.26339286 C4.09650587,9.26339286 4.33035714,9.49724413 4.33035714,9.78571429 C4.33035714,10.0741844 4.09650587,10.3080357 3.80803571,10.3080357 C3.51956555,10.3080357 3.28571429,10.0741844 3.28571429,9.78571429 C3.28571429,9.49724413 3.51956555,9.26339286 3.80803571,9.26339286 Z M10.1919643,6.47767857 C10.480692,6.47767857 10.7142857,6.71127232 10.7142857,7 C10.7142857,7.28872768 10.480692,7.52232143 10.1919643,7.52232143 L10.1919643,7.52232143 L5.66517857,7.52232143 C5.37645089,7.52232143 5.14285714,7.28872768 5.14285714,7 C5.14285714,6.71127232 5.37645089,6.47767857 5.66517857,6.47767857 L5.66517857,6.47767857 Z M3.80803571,6.47767857 C4.09650587,6.47767857 4.33035714,6.71152984 4.33035714,7 C4.33035714,7.28847016 4.09650587,7.52232143 3.80803571,7.52232143 C3.51956555,7.52232143 3.28571429,7.28847016 3.28571429,7 C3.28571429,6.71152984 3.51956555,6.47767857 3.80803571,6.47767857 Z M10.1919643,3.69196429 C10.480692,3.69196429 10.7142857,3.92555804 10.7142857,4.21428571 C10.7142857,4.50301339 10.480692,4.73660714 10.1919643,4.73660714 L10.1919643,4.73660714 L5.66517857,4.73660714 C5.37645089,4.73660714 5.14285714,4.50301339 5.14285714,4.21428571 C5.14285714,3.92555804 5.37645089,3.69196429 5.66517857,3.69196429 L5.66517857,3.69196429 Z M3.80803571,3.69196429 C4.09650587,3.69196429 4.33035714,3.92581555 4.33035714,4.21428571 C4.33035714,4.50275587 4.09650587,4.73660714 3.80803571,4.73660714 C3.51956555,4.73660714 3.28571429,4.50275587 3.28571429,4.21428571 C3.28571429,3.92581555 3.51956555,3.69196429 3.80803571,3.69196429 Z" id="形状结合" fill="#0A6FEB" fill-rule="nonzero"></path>
                    </g>
                </g>
            </g>
        </g>
    </g>
</svg>