<?xml version="1.0" encoding="UTF-8"?>
<svg width="14px" height="14px" viewBox="0 0 14 14" version="1.1" xmlns="http://www.w3.org/2000/svg" xmlns:xlink="http://www.w3.org/1999/xlink">
    <title>个人信息</title>
    <g id="页面-1" stroke="none" stroke-width="1" fill="none" fill-rule="evenodd">
        <g id="首页-1备份-2" transform="translate(-24.000000, -133.000000)" fill-rule="nonzero">
            <g id="导航" transform="translate(0.000000, 64.000000)">
                <g id="编组-3" transform="translate(0.000000, 56.000000)">
                    <g id="编组" transform="translate(24.000000, 13.000000)">
                        <rect id="矩形" fill="#000000" opacity="0" x="0" y="0" width="14" height="14"></rect>
                        <path d="M6.81416606,0.25 C4.72345158,0.25 3.02197295,2.00308235 3.02197295,4.15790544 C3.02197295,5.62735661 3.81377665,6.90861755 4.98006826,7.57586297 C2.69209329,8.4229854 1.05114844,10.6802869 1.05114844,13.3259271 C1.05114844,13.5600153 1.23544141,13.75 1.46249215,13.75 C1.69011766,13.75 1.87410222,13.5602817 1.87410222,13.3259271 C1.87410222,10.4254507 4.16392769,8.06560059 6.97846803,8.06560059 C7.01301069,8.06560059 7.0459552,8.06009114 7.07783427,8.05187605 C9.04605126,7.91170067 10.6066115,6.22118485 10.6066115,4.15796151 C10.6066115,2.00311039 8.90541326,0.25 6.81416606,0.25 Z M3.84519309,4.15791945 C3.84519309,2.47075416 5.17707641,1.09838414 6.81415204,1.09838414 C8.45149403,1.09838414 9.78339147,2.47072612 9.78339147,4.15791945 C9.78368577,5.84536513 8.45150805,7.21770711 6.81415204,7.21770711 C5.17704838,7.21770711 3.84519309,5.84536513 3.84519309,4.15791945 Z M8.01501436,9.85759951 L12.8391135,9.85759951 C13.0667391,9.85759951 13.2507236,9.66765691 13.2507236,9.4335266 C13.2507236,9.19943836 13.0667391,9.0094537 12.8391135,9.0094537 L8.01501436,9.0094537 C7.78794961,9.0094537 7.60340429,9.1993963 7.60340429,9.4335266 C7.60340429,9.66737653 7.78790755,9.85759951 8.01501436,9.85759951 Z M8.01494427,10.7435965 C7.78787951,10.7435965 7.6033342,10.9333148 7.6033342,11.1679077 C7.6033342,11.4019959 7.78783745,11.5919806 8.01494427,11.5919806 L12.8390434,11.5919806 C13.066669,11.5919806 13.2506535,11.4022623 13.2506535,11.1679077 C13.2506535,10.9333007 13.066669,10.7435965 12.8390434,10.7435965 L8.01494427,10.7435965 Z M12.8390434,12.6897897 L8.01494427,12.6897897 C7.78787951,12.6897897 7.6033342,12.879508 7.6033342,13.1138626 C7.6033342,13.3482172 7.78783745,13.5379355 8.01494427,13.5379355 L12.8390434,13.5379355 C13.066669,13.5379355 13.2506535,13.3482172 13.2506535,13.1138626 C13.2506535,12.879508 13.066669,12.6897897 12.8390434,12.6897897 Z" id="形状" stroke="#0A6FEB" stroke-width="0.2" fill="#0A6FEB"></path>
                    </g>
                </g>
            </g>
        </g>
    </g>
</svg>