<?xml version="1.0" encoding="UTF-8"?>
<svg width="14px" height="14px" viewBox="0 0 14 14" version="1.1" xmlns="http://www.w3.org/2000/svg" xmlns:xlink="http://www.w3.org/1999/xlink">
    <title>编组 2</title>
    <g id="页面-1" stroke="none" stroke-width="1" fill="none" fill-rule="evenodd">
        <g id="首页-1备份-2" transform="translate(-24.000000, -229.000000)">
            <g id="导航" transform="translate(0.000000, 64.000000)">
                <g id="编组-4" transform="translate(0.000000, 152.000000)">
                    <g id="编组-5" transform="translate(24.000000, 13.000000)">
                        <rect id="矩形" opacity="0" x="0" y="0" width="14" height="14"></rect>
                        <path d="M8.76640927,0 C9.25647291,0 9.69257917,0.284340041 9.8973392,0.713892003 L9.91854191,0.765884945 L12.5984561,0.766409556 C13.0044268,0.766409556 13.3453567,1.04488242 13.4406494,1.4212318 L13.4604125,1.52616355 L13.4671811,1.63513457 L13.4671811,13.131275 C13.4671811,13.5741521 13.1357754,13.9396253 12.7074271,13.9932314 L12.5984561,14 L1.86872501,14 C1.42584787,14 1.06037467,13.6685943 1.0067686,13.240246 L1,13.131275 L1,1.63513457 C1,1.19225742 1.33140572,0.826784227 1.75975399,0.773178157 L1.86872501,0.766409556 L4.54799346,0.765884945 L4.57013569,0.713067071 C4.73660402,0.363798308 5.05466411,0.113283845 5.4273175,0.030065348 L5.56943213,0.00683428026 L5.70077181,0 L8.76640927,0 Z M4.54799346,1.73686046 L1.97066224,1.73686046 L1.97066224,13.0284156 L12.4958731,13.0284156 L12.4958731,1.73686046 L9.91854191,1.73686046 L9.89704539,1.79079271 C9.7097685,2.1837201 9.33063328,2.45166152 8.89774893,2.49702535 L8.76640927,2.50385958 L5.70080133,2.50385958 C5.21429589,2.50399994 4.77614047,2.22301284 4.57013571,1.79079271 L4.54799346,1.73686046 Z M10.250561,9.53796469 C10.5187065,9.53796469 10.7360813,9.75533955 10.7360813,10.023485 C10.7360813,10.2618366 10.5643283,10.460073 10.3378339,10.501183 L10.250561,10.5090054 L4.16795309,10.5090054 C3.89980761,10.5090054 3.68243276,10.2916305 3.68243276,10.023485 C3.68243276,9.78513349 3.85418573,9.58689702 4.08068019,9.54578708 L4.16795309,9.53796469 L10.250561,9.53796469 Z M8.91158364,4.1606647 C9.08077743,3.95259121 9.38661299,3.92107298 9.59468648,4.09026677 C9.75199785,4.21818361 9.81036798,4.4269687 9.74802243,4.61916801 L9.71384867,4.70023956 L9.66507587,4.77338015 L7.16505354,7.84705873 C7.07901756,7.95285336 6.95245798,8.01759087 6.81632178,8.02544133 C6.74020586,8.02983064 6.66463477,8.01621757 6.59184298,7.98370064 L6.5200604,7.94484902 L6.44937441,7.88830633 L4.9778072,6.45238797 C4.78961519,6.26453372 4.78754186,5.96024941 4.97315652,5.76984812 C5.10770301,5.63183195 5.30744901,5.58913677 5.48833672,5.65498606 L5.57681989,5.6970173 L5.65648747,5.75836749 L6.74675677,6.82194825 L8.91158364,4.1606647 Z M8.76640927,0.971040855 L5.70077182,0.971040855 C5.54564109,0.971040858 5.41988279,1.09679916 5.41988279,1.25192989 C5.41988279,1.3636089 5.48559316,1.46184463 5.57653554,1.50592536 L5.63380499,1.52554952 L5.70077181,1.53281892 L8.76640927,1.53281892 C8.92153999,1.53281892 9.04729829,1.40706061 9.04729829,1.25192989 C9.04729829,1.09679916 8.92153999,0.971040858 8.76640927,0.971040855 Z" id="形状结合" fill="#0A6FEB" fill-rule="nonzero"></path>
                    </g>
                </g>
            </g>
        </g>
    </g>
</svg>