<?xml version="1.0" encoding="UTF-8"?>
<svg width="14px" height="14px" viewBox="0 0 14 14" version="1.1" xmlns="http://www.w3.org/2000/svg" xmlns:xlink="http://www.w3.org/1999/xlink">
    <title>设置 2</title>
    <g id="页面-1" stroke="none" stroke-width="1" fill="none" fill-rule="evenodd">
        <g id="首页-1" transform="translate(-24.000000, -421.000000)" fill-rule="nonzero">
            <g id="导航" transform="translate(0.000000, 64.000000)">
                <g id="编组-4" transform="translate(0.000000, 344.000000)">
                    <g id="设置" transform="translate(24.000000, 13.000000)">
                        <rect id="矩形" fill="#000000" opacity="0" x="0" y="0" width="14" height="14"></rect>
                        <path d="M6.97167658,4.38585619 C5.55608798,4.38585619 4.44798379,5.52385569 4.44798379,6.97498627 C4.44798379,8.42756653 5.55608798,9.56411636 6.97167658,9.56411636 C8.36260842,9.56411636 9.49536938,8.40292196 9.49536938,6.97498627 C9.49536938,5.54850027 8.36260842,4.38585619 6.97167658,4.38585619 L6.97167658,4.38585619 Z M6.97167658,8.46525824 C6.15800322,8.46525824 5.51982803,7.81145215 5.51982803,6.97498627 C5.51982803,6.13997008 6.15800322,5.48471431 6.97167658,5.48471431 C7.78534995,5.48471431 8.42352514,6.13997008 8.42352514,6.97498627 C8.42352514,7.81145215 7.78680035,8.46525824 6.97167658,8.46525824 L6.97167658,8.46525824 Z M13.3490773,5.71086453 C13.2794582,5.23681888 12.961821,4.88019738 12.5121976,4.77871971 L12.4367768,4.76712227 C12.1002845,4.67869173 11.8667704,4.48588417 11.6622642,4.12781299 C11.4751629,3.80743351 11.4287501,3.42616743 11.5244764,3.14202998 C11.7072266,2.70567603 11.5810419,2.19248899 11.2300456,1.88515664 C10.6266799,1.29948556 9.91163365,0.857332881 9.14147223,0.584792872 C8.73391035,0.405032441 8.27993572,0.515208189 7.92748897,0.876178733 L7.88542742,0.925467883 C7.52282788,1.39951354 6.70045213,1.54883067 6.0158642,0.847185115 C5.83021323,0.657276917 5.42990334,0.367340737 4.80333134,0.584792872 C4.00561235,0.931266607 3.3384292,1.34007662 2.79743068,1.80832355 C2.40872398,2.09246101 2.24627938,2.60274868 2.39712079,3.0564988 C2.49719826,3.46385914 2.45513672,3.83787681 2.27528735,4.16840405 C2.12444594,4.4380447 1.82711432,4.66274524 1.47321716,4.77292099 C1.36008611,4.79176684 1.27596301,4.83815663 1.2121455,4.88889546 C0.968478605,5.03386355 0.785728437,5.25566473 0.656643001,5.56444676 L0.613131056,5.6978174 L0.613131056,5.75725432 C0.536259954,6.17186306 0.5,6.5705253 0.5,7.00542957 C0.5,7.34755427 0.521755972,7.84189545 0.623283843,8.27535004 C0.694353353,8.74794601 1.01199055,9.10166815 1.46016358,9.20314582 L1.53558429,9.21474326 C1.87207666,9.3031738 2.10414036,9.49453168 2.3100969,9.85260286 C2.49719826,10.1729823 2.54361101,10.5542484 2.44788473,10.8398356 C2.26513456,11.2761895 2.3913192,11.7893765 2.74231555,12.0967089 C3.35148278,12.6896284 4.07813226,13.1317811 4.90050801,13.4130191 L4.98318071,13.4420128 L4.98608151,13.4420128 C5.03684544,13.4565096 5.10356376,13.4710064 5.18333565,13.4710064 L5.26890915,13.4710064 C5.57204236,13.4710064 5.87662597,13.3376357 6.13189605,13.0723441 C6.54235873,12.5751036 7.34878011,12.4533304 8.01451286,13.1346804 C8.24367577,13.3695287 8.51925142,13.5 8.79047588,13.5 C8.88475176,13.5 9.05734914,13.5 9.19803776,13.427516 C9.98270316,13.0868409 10.6411839,12.6852793 11.2082896,12.2025356 C11.5868435,11.9459421 11.7565401,11.4153589 11.6042483,10.9543603 C11.5041708,10.547 11.5462324,10.1729823 11.7260817,9.84390477 C11.8769232,9.57281445 12.1742548,9.34956359 12.5281519,9.23938784 C12.6427334,9.22199167 12.7254061,9.1741522 12.790674,9.12196369 C13.0343409,8.9769956 13.2156407,8.7566441 13.3447261,8.44786207 L13.388238,8.31449142 L13.388238,8.25505451 C13.4651091,7.84044577 13.5013691,7.44033384 13.4999605,6.96193915 C13.4694603,6.54878009 13.439002,6.12257391 13.3490773,5.71086453 L13.3490773,5.71086453 Z M12.327997,8.07529408 C12.2873858,8.15067748 12.2569275,8.16517429 12.2409731,8.17387238 L12.2308203,8.1796711 C11.6056987,8.37102898 11.0850058,8.77548995 10.7920253,9.29882476 C10.4700369,9.88594552 10.3931658,10.5614968 10.5701144,11.2529946 L10.5788168,11.3037334 L10.5440072,11.3341767 C10.0697271,11.7444364 9.51277416,12.0880108 8.81658304,12.3982425 C8.80497986,12.3909941 8.78902548,12.377947 8.7687199,12.3576515 C8.25672935,11.832867 7.6649669,11.5559779 7.05434928,11.5559779 C6.36831095,11.5559779 5.73303656,11.8502631 5.34142905,12.3286578 C5.30081791,12.3706986 5.26600835,12.3721483 5.26600835,12.3721483 L5.17463327,12.3431546 L5.15722849,12.3431546 C4.5161525,12.1126554 3.95194762,11.7603829 3.47621702,11.2993844 L3.44285786,11.2399475 C3.65751679,10.6165847 3.57629449,9.8873952 3.22964933,9.29302603 C2.8670498,8.66096516 2.37246402,8.28114876 1.71978485,8.13183163 L1.6777233,8.12603291 L1.6820745,8.10573738 L1.67047131,8.04050173 C1.60810419,7.78245853 1.57329464,7.41568927 1.57329464,7.00832893 C1.57329464,6.62851254 1.603753,6.29798529 1.67337211,5.93701475 C1.71253286,5.86308102 1.74444162,5.84713453 1.760396,5.83843645 L1.76909839,5.83263773 C2.39422,5.64127985 2.91636333,5.23681888 3.20789336,4.71348407 C3.52988175,4.12636331 3.60675286,3.45081201 3.4138499,2.71582379 L3.45446105,2.67958177 C3.94469563,2.25482527 4.52195409,1.90255281 5.18188526,1.61406631 C5.21959561,1.60101918 5.23409959,1.60101918 5.25875636,1.62711344 C5.77074691,2.15189792 6.36250936,2.42878698 6.97312698,2.42878698 C7.68382208,2.42878698 8.2973405,2.14899856 8.70345199,1.64016057 C8.73100955,1.61406631 8.75276552,1.60536822 8.75711672,1.61261663 C9.41849828,1.84746494 10.0030087,2.20843548 10.4961441,2.68683018 L10.5295033,2.74626709 C10.3148443,3.36962988 10.3960666,4.09881937 10.7427118,4.69318854 C11.1053113,5.32524941 11.5984467,5.70506581 12.2525763,5.85438294 L12.2873858,5.86018166 C12.2888362,5.86453071 12.2902866,5.87177911 12.291737,5.88192688 L12.3018898,5.93701475 C12.3773105,6.27189104 12.4034177,6.64590871 12.4295249,7.00832893 C12.4280745,7.38379629 12.3976161,7.71577321 12.327997,8.07529408 Z" id="形状" fill="#606266"></path>
                    </g>
                </g>
            </g>
        </g>
    </g>
</svg>