<?xml version="1.0" encoding="UTF-8"?>
<svg width="14px" height="14px" viewBox="0 0 14 14" version="1.1" xmlns="http://www.w3.org/2000/svg" xmlns:xlink="http://www.w3.org/1999/xlink">
    <title>yonghuming 2</title>
    <g id="页面-1" stroke="none" stroke-width="1" fill="none" fill-rule="evenodd">
        <g id="首页-1备份" transform="translate(-24.000000, -613.000000)" fill="#606266" fill-rule="nonzero">
            <g id="导航" transform="translate(0.000000, 64.000000)">
                <g id="编组-4" transform="translate(0.000000, 536.000000)">
                    <g id="yonghuming-2" transform="translate(24.000000, 13.000000)">
                        <g id="yonghuming" transform="translate(0.000000, 0.500000)">
                            <path d="M5.80479095,8.73798916 C5.80128725,8.96898018 5.6254224,9.16077242 5.39559977,9.18423916 C3.613688,9.40041563 2.35214388,9.99026858 1.58317329,10.9429892 C1.47620586,11.0743104 1.41760394,11.2383958 1.41718064,11.4077686 L1.41718064,11.7111877 C1.41718064,11.8370333 1.52372476,11.938945 1.65574682,11.938945 L12.4290557,11.938945 C12.5603056,11.938945 12.6676218,11.8370333 12.6676218,11.7111877 L12.6676218,11.4077686 C12.6671985,11.2383958 12.6085966,11.0743104 12.5016292,10.9429892 C11.7326586,9.99026857 10.4711145,9.40041563 8.68997476,9.18423916 C8.45984705,9.16113794 8.28355902,8.96924626 8.28001153,8.73798916 L8.28001153,7.69725386 C8.28001153,7.54438621 8.36107771,7.40155533 8.496188,7.31894505 C9.26670271,6.84644505 9.74229094,6.03192298 9.74229094,5.13865092 L9.74229094,3.97052592 C9.74229094,2.54221709 8.53324682,1.3833568 7.04240123,1.3833568 C5.55155564,1.3833568 4.34251152,2.54144504 4.34251153,3.96975387 L4.34251153,5.13865092 C4.34251153,6.03192298 4.81809977,6.84644503 5.58861446,7.31894505 C5.72372477,7.40155535 5.80479093,7.54438623 5.80479095,7.69725386 L5.80479095,8.73798916 Z M4.86751153,7.93273181 C3.95802624,7.28188622 3.40523212,6.25504798 3.40523212,5.13787885 L3.40523212,3.97129799 C3.40523212,2.04423915 5.03350418,0.484680333 7.04240123,0.484680333 C9.05129829,0.484680333 10.6795703,2.04501122 10.6795704,3.97052592 L10.6795704,5.13865092 C10.6795704,6.25504798 10.1267762,7.28188622 9.21729095,7.93273181 L9.21729095,8.34964356 C11.0215924,8.63530533 12.3711512,9.31317297 13.2435777,10.3932833 C13.4775115,10.6835774 13.6049012,11.0402686 13.6049012,11.4077686 L13.6049012,11.7111877 C13.6049012,12.3334671 13.0783571,12.8376215 12.4290557,12.8376215 L1.65574682,12.8376215 C1.00644536,12.8376215 0.479901238,12.3334671 0.479901238,11.7104156 L0.479901238,11.4077686 C0.479901238,11.0402686 0.607290944,10.6835774 0.841224756,10.3932833 C1.71365123,9.31317299 3.06321005,8.63530534 4.86751153,8.34964356 L4.86751153,7.93273181 Z" id="形状"></path>
                        </g>
                    </g>
                </g>
            </g>
        </g>
    </g>
</svg>