<?xml version="1.0" encoding="UTF-8"?>
<svg width="16px" height="16px" viewBox="0 0 16 16" version="1.1" xmlns="http://www.w3.org/2000/svg" xmlns:xlink="http://www.w3.org/1999/xlink">
    <title>图标 / G / 个人中心 / 68</title>
    <g id="页面-1" stroke="none" stroke-width="1" fill="none" fill-rule="evenodd">
        <g id="登录页2备份" transform="translate(-1007.000000, -343.000000)">
            <g id="编组-11" transform="translate(991.000000, 330.000000)">
                <g id="图标-/-G-/-个人中心-/-67" transform="translate(16.000000, 13.000000)">
                    <rect id="矩形" fill-opacity="0" fill="#D8D8D8" x="0" y="0" width="16" height="16"></rect>
                    <path d="M6.50457076,10.3681807 C6.50457076,10.6249912 6.30655584,10.8417187 6.04242971,10.8739944 C4.03348578,11.1194836 2.61131949,11.789464 1.74389075,12.8708661 C1.62282845,13.0217915 1.55714286,13.2072182 1.55714286,13.3980457 L1.55714286,13.7423403 C1.55714286,13.8853817 1.67735724,14.0013397 1.82564918,14.0013397 L13.9743507,14.0013397 C14.1226427,14.0013397 14.2428571,13.8853817 14.2428571,13.7423402 L14.2428571,13.3980472 C14.2428571,13.20722 14.1771717,13.021793 14.0561105,12.8708678 C13.1886812,11.7894647 11.7665142,11.1194838 9.75756924,10.8739945 C9.49344311,10.8417187 9.29542819,10.6249912 9.29542819,10.3681807 L9.29542819,9.18692287 C9.29542819,9.01309983 9.38723505,8.85125306 9.53899963,8.75752957 C10.4082666,8.22070643 10.9445712,7.29600243 10.9445712,6.28211268 L10.9445712,4.95648636 C10.9445712,3.33455117 9.58146999,2.01971292 7.89999948,2.01971292 C6.21852896,2.01971292 4.85542778,3.33455117 4.85542778,4.95648636 L4.85542778,6.28211268 C4.85542778,7.29600243 5.39173238,8.22070643 6.26099932,8.75752957 C6.4127639,8.85125306 6.50457076,9.01309983 6.50457076,9.18692287 L6.50457076,10.3681807 Z M5.4474279,9.4537497 C4.42175942,8.7153701 3.79828492,7.54986639 3.79828492,6.28211268 L3.79828492,4.95648636 C3.79828492,2.77137928 5.63468508,1 7.89999948,1 C10.1653139,1 12.001714,2.77137928 12.001714,4.95648636 L12.001714,6.28211268 C12.001714,7.54986639 11.3782395,8.7153701 10.3525711,9.4537497 L10.3525711,9.92725161 C12.3871047,10.2513441 13.9089293,11.0210334 14.8922061,12.2468608 C15.1565651,12.576433 15.3,12.9813436 15.3,13.3980472 L15.3,13.7423402 C15.3,14.4485536 14.7064866,15.0210526 13.9743507,15.0210526 L1.82564918,15.0210526 C1.09351335,15.0210526 0.5,14.4485536 0.5,13.7423401 L0.5,13.3980454 C0.5,12.9813408 0.643435721,12.5764296 0.907796243,12.2468578 C1.89107153,11.0210326 3.41289528,10.2513439 5.4474279,9.92725157 L5.4474279,9.4537497 Z" id="图标-/-G-/-个人中心-/-66" stroke="#606266" stroke-width="0.1" fill="#606266" fill-rule="nonzero"></path>
                </g>
            </g>
        </g>
    </g>
</svg>