<?xml version="1.0" encoding="UTF-8"?>
<svg width="12px" height="12px" viewBox="0 0 12 12" version="1.1" xmlns="http://www.w3.org/2000/svg" xmlns:xlink="http://www.w3.org/1999/xlink">
    <title>退出 2</title>
    <g id="页面-1" stroke="none" stroke-width="1" fill="none" fill-rule="evenodd">
        <g id="首页-1备份" transform="translate(-1236.000000, -159.000000)" fill-rule="nonzero">
            <g id="弹出框" transform="translate(1224.000000, 48.000000)">
                <g id="退出" transform="translate(12.000000, 111.000000)">
                    <rect id="矩形" fill="#000000" opacity="0" x="0" y="0" width="12" height="12"></rect>
                    <path d="M8.22087805,0.0117073125 C8.84019512,0.0117073125 9.34478048,0.516292676 9.34478048,1.13560976 L9.34478048,2.24546341 C9.34478048,2.45268293 9.17736585,2.62009755 8.97014634,2.62009757 C8.76292684,2.62009758 8.5955122,2.45268293 8.59551219,2.24546341 L8.59551219,1.13560976 C8.59551219,0.92956098 8.42692683,0.760975617 8.22087805,0.760975605 L1.13560976,0.760975605 C0.92956098,0.760975605 0.760975617,0.929560969 0.760975605,1.13560976 L0.760975605,10.8760976 C0.760975605,11.0821463 0.929560969,11.2507317 1.13560976,11.2507317 L8.22087805,11.2507317 C8.42692683,11.2507317 8.59551219,11.0821463 8.59551219,10.8760976 L8.59551219,9.73814634 C8.59551219,9.53092683 8.76292683,9.3635122 8.97014634,9.36351219 C9.17736586,9.36351218 9.34478048,9.53092683 9.34478048,9.73814634 L9.34478048,10.8760976 C9.34478048,11.4954146 8.84136585,12 8.22087805,12 L1.13560976,12 C0.516292687,12 0.0117073125,11.4954146 0.0117073125,10.8760976 L0.0117073125,1.13560976 C0.0117073125,0.516292687 0.516292687,0.0117073125 1.13560976,0.0117073125 L8.22087805,0.0117073125 Z M10.782439,4.26965854 L11.9157073,5.80097561 C12.0152195,5.93560975 12.0140488,6.12058536 11.9110244,6.25287805 L10.7777561,7.72097561 C10.704,7.81697561 10.5927805,7.86731707 10.4803902,7.86731707 C10.4007805,7.86731707 10.32,7.84156097 10.2520976,7.78887805 C10.0881951,7.66243903 10.0577561,7.42712195 10.1841951,7.26321952 L10.8717073,6.37070731 L4.48741464,6.37112195 C4.28019512,6.37112195 4.11278048,6.20370731 4.11278048,5.99648781 C4.11278048,5.7892683 4.28019512,5.62185366 4.48741464,5.62185366 L10.8497073,5.62170731 L10.1795122,4.71570731 C10.0565854,4.54946341 10.0917073,4.31531707 10.2579512,4.19121952 C10.4241951,4.06829269 10.6583415,4.10341464 10.782439,4.26965854 Z" id="形状结合" fill="#606266"></path>
                </g>
            </g>
        </g>
    </g>
</svg>