<?xml version="1.0" encoding="UTF-8"?>
<svg width="16px" height="16px" viewBox="0 0 16 16" version="1.1" xmlns="http://www.w3.org/2000/svg" xmlns:xlink="http://www.w3.org/1999/xlink">
    <title>mima 2</title>
    <g id="页面-1" stroke="none" stroke-width="1" fill="none" fill-rule="evenodd">
        <g id="登录页2备份" transform="translate(-1007.000000, -409.000000)">
            <g id="编组-12" transform="translate(991.000000, 396.000000)">
                <g id="mima" transform="translate(16.000000, 13.000000)">
                    <rect id="矩形" fill-opacity="0" fill="#D8D8D8" x="0" y="0" width="16" height="16"></rect>
                    <path d="M8.125,0.5 C10.1875,0.5 11.875,2.1875 11.875,4.25 L11.874,6.593 L13.28125,6.59375 C13.5625,6.59375 13.75,6.78125 13.75,7.0625 L13.75,14 C13.75,14.8284271 13.0784271,15.5 12.25,15.5 L4,15.5 C3.17157288,15.5 2.5,14.8284271 2.5,14 L2.5,7.0625 C2.5,6.78125 2.6875,6.59375 2.96875,6.59375 L4.374,6.593 L4.375,4.25 C4.375,2.1875 6.0625,0.5 8.125,0.5 Z M12.8125,7.53125 L3.4375,7.53125 L3.4375,13.5625 C3.4375,14.1147847 3.88521525,14.5625 4.4375,14.5625 L11.8125,14.5625 C12.3647847,14.5625 12.8125,14.1147847 12.8125,13.5625 L12.8125,7.53125 Z M8.125,9.21875 C8.64276695,9.21875 9.0625,9.63848305 9.0625,10.15625 C9.0625,10.5403375 8.83152502,10.870478 8.50089708,11.0153493 L8.5,12.3125 C8.5,12.5 8.3125,12.6875 8.125,12.6875 C7.9375,12.6875 7.75,12.5 7.75,12.3125 L7.74910292,11.0153493 C7.41847498,10.870478 7.1875,10.5403375 7.1875,10.15625 C7.1875,9.63848305 7.60723305,9.21875 8.125,9.21875 Z M8.125,1.4375 C6.53125,1.4375 5.3125,2.65625 5.3125,4.25 L5.312,6.593 L10.937,6.593 L10.9375,4.25 C10.9375,2.65625 9.71875,1.4375 8.125,1.4375 Z" id="形状结合" stroke="#606266" stroke-width="0.2" fill="#606266" fill-rule="nonzero"></path>
                </g>
            </g>
        </g>
    </g>
</svg>